#!OML:ASF X:\für Bonn\!DataBase\2005_08_10_Bjorn_Final\c3d\bjorn.ASF
:FULLY-SPECIFIED
:DEGREES
157
root -4.39381 18.6477 -2.39749 446.968 94.1989 454.66
lowerback 10.2372 0.386235 -10.9141
upperback 17.317 2.16057 -2.94333
thorax 13.4858 0.538708 2.91045
lowerneck 8.81678 -11.4356 -3.03284
upperneck -0.835291 -15.0368 21.6735
head 0.209504 -7.94806 7.23609
rclavicle 3.18055e-015 -1.59028e-014
rhumerus -27.9818 -19.3345 -85.993
rradius 40.5459
rwrist 6.62439
rhand -11.0147 17.9567
rfingers 7.12502
rthumb 15.0063 -11.4795
lclavicle 3.18055e-015 -1.59028e-014
lhumerus -4.84406 -4.1994 73.8302
lradius 62.9418
lwrist -7.23707
lhand -44.2831 -13.1093
lfingers 7.12502
lthumb -17.0938 16.1587
rfemur -41.2277 -9.79975 11.2664
rtibia 98.9563
rfoot 12.4937 20.883
rtoes -22.6487
lfemur -11.9162 6.72631 -11.7647
ltibia 42.7657
lfoot -16.0493 -8.22075
ltoes -7.63366
158
root -4.33847 18.641 -2.41763 448.148 94.2286 456.006
lowerback 10.3398 0.38313 -10.9074
upperback 17.375 2.15883 -2.95941
thorax 13.5018 0.542166 2.88682
lowerneck 8.70549 -11.2905 -2.98659
upperneck -0.671897 -14.8594 21.6336
head 0.245097 -7.84046 7.20878
rclavicle 1.43125e-014 1.74931e-014
rhumerus -27.9706 -19.3669 -85.9176
rradius 40.3853
rwrist 6.63606
rhand -11.0091 17.9222
rfingers 7.12502
rthumb 15.0117 -11.5137
lclavicle 1.43125e-014 1.74931e-014
lhumerus -4.38639 -4.31208 73.9557
lradius 63.0309
lwrist -7.22813
lhand -44.2608 -13.1653
lfingers 7.12502
lthumb -17.0722 16.1045
rfemur -42.0893 -10.0021 11.2587
rtibia 98.874
rfoot 12.0413 21.0715
rtoes -22.8647
lfemur -11.5276 6.38811 -11.8415
ltibia 42.823
lfoot -16.3936 -7.74744
ltoes -7.91154
159
root -4.28407 18.6334 -2.43747 449.293 94.2408 457.328
lowerback 10.4819 0.39457 -10.8941
upperback 17.4141 2.16872 -2.98513
thorax 13.4678 0.555644 2.84812
lowerneck 8.6545 -11.1401 -2.9422
upperneck -0.52342 -14.6683 21.6329
head 0.267614 -7.73038 7.19941
rclavicle -7.95139e-015 -4.77083e-015
rhumerus -28.0441 -19.4149 -85.8239
rradius 40.2841
rwrist 6.62279
rhand -11.0017 17.8176
rfingers 7.12502
rthumb 15.0188 -11.6177
lclavicle -7.95139e-015 -4.77083e-015
lhumerus -3.95695 -4.47995 74.0786
lradius 63.1224
lwrist -7.27152
lhand -44.2697 -13.1394
lfingers 7.12502
lthumb -17.0808 16.1297
rfemur -42.9008 -10.1809 11.2403
rtibia 98.6748
rfoot 11.6345 21.2433
rtoes -22.937
lfemur -11.1223 5.99702 -11.9545
ltibia 42.8641
lfoot -16.7259 -7.24674
ltoes -8.02137
160
root -4.22801 18.6269 -2.45659 450.577 94.2764 458.766
lowerback 10.5797 0.397274 -10.8782
upperback 17.4569 2.1708 -2.99599
thorax 13.4654 0.561841 2.82537
lowerneck 8.58027 -10.9907 -2.88038
upperneck -0.404877 -14.4737 21.6059
head 0.281834 -7.6191 7.17862
rclavicle 2.8625e-014 3.49861e-014
rhumerus -28.0668 -19.4584 -85.7418
rradius 40.1303
rwrist 6.7171
rhand -11.1052 17.7133
rfingers 7.12502
rthumb 14.9192 -11.7294
lclavicle 2.8625e-014 3.49861e-014
lhumerus -3.52494 -4.59997 74.2299
lradius 63.1927
lwrist -7.35319
lhand -44.2608 -13.0787
lfingers 7.12502
lthumb -17.0723 16.1911
rfemur -43.6834 -10.3616 11.2737
rtibia 98.3752
rfoot 11.0441 21.4719
rtoes -23.6663
lfemur -10.7227 5.59409 -12.0592
ltibia 42.8853
lfoot -17.0718 -6.65966
ltoes -8.36716
161
root -4.17316 18.6228 -2.47486 451.678 94.3004 460.048
lowerback 10.7176 0.397331 -10.873
upperback 17.4991 2.16435 -3.00817
thorax 13.4404 0.564198 2.80611
lowerneck 8.53671 -10.83 -2.79525
upperneck -0.29996 -14.257 21.5455
head 0.280176 -7.49889 7.14725
rclavicle 4.92986e-014 6.67916e-014
rhumerus -28.1097 -19.4748 -85.6516
rradius 39.9914
rwrist 6.73133
rhand -11.2405 17.6701
rfingers 7.12502
rthumb 14.7888 -11.7822
lclavicle 4.92986e-014 6.67916e-014
lhumerus -3.12856 -4.73511 74.3695
lradius 63.2771
lwrist -7.41909
lhand -44.3166 -12.9764
lfingers 7.12502
lthumb -17.1259 16.2888
rfemur -44.3898 -10.5215 11.3034
rtibia 97.9625
rfoot 10.4526 21.674
rtoes -24.159
lfemur -10.286 5.15686 -12.1857
ltibia 42.879
lfoot -17.3998 -6.0667
ltoes -8.69407
162
root -4.11868 18.6186 -2.4928 452.641 94.3241 461.159
lowerback 10.8308 0.391974 -10.8557
upperback 17.5314 2.15105 -3.01823
thorax 13.417 0.563742 2.78316
lowerneck 8.46481 -10.6652 -2.75288
upperneck -0.158696 -14.0472 21.5078
head 0.299717 -7.37836 7.12576
rclavicle -1.59028e-014 -1.59028e-015
rhumerus -28.1351 -19.5121 -85.5548
rradius 39.8543
rwrist 6.73672
rhand -11.3793 17.7019
rfingers 7.12502
rthumb 14.6551 -11.7602
lclavicle -1.59028e-014 -1.59028e-015
lhumerus -2.72148 -4.90473 74.4974
lradius 63.3507
lwrist -7.34916
lhand -44.3172 -12.9678
lfingers 7.12502
lthumb -17.1265 16.2973
rfemur -45.1146 -10.704 11.3526
rtibia 97.4877
rfoot 9.78421 21.8779
rtoes -24.8465
lfemur -9.87643 4.78544 -12.3003
ltibia 42.852
lfoot -17.6856 -5.56853
ltoes -8.8976
163
root -4.06193 18.6156 -2.51105 453.857 94.3546 462.536
lowerback 10.9264 0.375594 -10.8482
upperback 17.5718 2.12566 -3.02405
thorax 13.4169 0.554311 2.77047
lowerneck 8.38341 -10.4921 -2.65614
upperneck -0.0116595 -13.822 21.3793
head 0.310654 -7.2482 7.0674
rclavicle -3.33958e-014 -3.81667e-014
rhumerus -28.1387 -19.5627 -85.4375
rradius 39.7226
rwrist 6.70294
rhand -11.4037 17.7751
rfingers 7.12502
rthumb 14.6316 -11.6887
lclavicle -3.33958e-014 -3.81667e-014
lhumerus -2.32885 -4.89723 74.6971
lradius 63.3894
lwrist -7.34921
lhand -44.3013 -13.0704
lfingers 7.12502
lthumb -17.1112 16.1961
rfemur -45.7696 -10.8476 11.4179
rtibia 96.905
rfoot 9.1317 21.9864
rtoes -25.2512
lfemur -9.43505 4.44608 -12.4192
ltibia 42.7999
lfoot -17.9719 -5.05475
ltoes -9.18406
164
root -4.00364 18.6142 -2.52862 454.97 94.3842 463.772
lowerback 10.9839 0.358672 -10.8144
upperback 17.5863 2.09957 -3.04053
thorax 13.4044 0.548295 2.73241
lowerneck 8.38264 -10.3169 -2.53919
upperneck 0.0843725 -13.5786 21.2633
head 0.290964 -7.1168 7.0173
rclavicle -1.59028e-015 1.59028e-015
rhumerus -28.1921 -19.5954 -85.3222
rradius 39.6082
rwrist 6.57853
rhand -11.4122 17.8799
rfingers 7.12502
rthumb 14.6233 -11.5845
lclavicle -1.59028e-015 1.59028e-015
lhumerus -2.00058 -5.018 74.854
lradius 63.4611
lwrist -7.2476
lhand -44.299 -13.1393
lfingers 7.12502
lthumb -17.109 16.1274
rfemur -46.389 -11.0073 11.4941
rtibia 96.2284
rfoot 8.38902 22.1092
rtoes -25.8035
lfemur -9.02236 4.09788 -12.542
ltibia 42.733
lfoot -18.2652 -4.56402
ltoes -9.41815
165
root -3.94145 18.6125 -2.54656 456.043 94.4175 464.979
lowerback 10.9995 0.338874 -10.7596
upperback 17.6239 2.08136 -3.05709
thorax 13.4452 0.546866 2.68373
lowerneck 8.32637 -10.1558 -2.4127
upperneck 0.233317 -13.3652 21.127
head 0.298418 -6.99354 6.95297
rclavicle 1.59028e-015 2.54444e-014
rhumerus -28.2137 -19.715 -85.2085
rradius 39.4772
rwrist 6.48686
rhand -11.4126 18.0041
rfingers 7.12502
rthumb 14.623 -11.4604
lclavicle 1.59028e-015 2.54444e-014
lhumerus -1.653 -5.1175 75.0152
lradius 63.5494
lwrist -7.18516
lhand -44.2541 -13.1489
lfingers 7.12502
lthumb -17.0657 16.1216
rfemur -46.9307 -11.1732 11.5735
rtibia 95.4458
rfoot 7.62811 22.2125
rtoes -26.3523
lfemur -8.56627 3.75574 -12.6737
ltibia 42.6427
lfoot -18.5363 -4.01069
ltoes -9.89835
166
root -3.87774 18.6121 -2.56459 457.132 94.443 466.179
lowerback 10.969 0.315578 -10.7102
upperback 17.6448 2.05835 -3.06571
thorax 13.4919 0.540099 2.6476
lowerneck 8.36391 -9.98705 -2.32881
upperneck 0.325817 -13.1327 20.9972
head 0.275293 -6.87007 6.90527
rclavicle 1.43125e-014 1.27222e-014
rhumerus -28.2508 -19.8083 -85.0579
rradius 39.3131
rwrist 6.46037
rhand -11.4402 18.1155
rfingers 7.12502
rthumb 14.5964 -11.3508
lclavicle 1.43125e-014 1.27222e-014
lhumerus -1.3575 -5.26416 75.1698
lradius 63.6152
lwrist -7.10514
lhand -44.3088 -13.0987
lfingers 7.12502
lthumb -17.1184 16.1672
rfemur -47.4013 -11.3266 11.6614
rtibia 94.5447
rfoot 6.85032 22.3038
rtoes -26.8376
lfemur -8.129 3.41075 -12.8195
ltibia 42.5391
lfoot -18.7976 -3.53217
ltoes -10.0445
167
root -3.81345 18.612 -2.5821 458.544 94.4621 467.7
lowerback 10.9205 0.304244 -10.6467
upperback 17.6866 2.06258 -3.09649
thorax 13.574 0.550251 2.57954
lowerneck 8.32441 -9.82989 -2.18052
upperneck 0.414971 -12.9119 20.889
head 0.263264 -6.74822 6.84878
rclavicle 1.59028e-015 -7.95139e-015
rhumerus -28.2016 -20.0346 -84.9427
rradius 39.0822
rwrist 6.52973
rhand -11.4674 18.2395
rfingers 7.12502
rthumb 14.5702 -11.2287
lclavicle 1.59028e-015 -7.95139e-015
lhumerus -0.988638 -5.41409 75.3211
lradius 63.6541
lwrist -7.05509
lhand -44.3613 -13.0596
lfingers 7.12502
lthumb -17.169 16.2019
rfemur -47.8101 -11.4562 11.7507
rtibia 93.523
rfoot 6.08408 22.2442
rtoes -27.6866
lfemur -7.67934 3.09964 -12.986
ltibia 42.4168
lfoot -19.063 -2.99688
ltoes -10.46
168
root -3.74844 18.6122 -2.59974 459.778 94.4992 469.011
lowerback 10.8441 0.269648 -10.5859
upperback 17.7016 2.0271 -3.10044
thorax 13.6409 0.536449 2.54296
lowerneck 8.31054 -9.656 -2.07574
upperneck 0.557945 -12.6816 20.696
head 0.259676 -6.61906 6.7726
rclavicle 7.95139e-015 2.38542e-014
rhumerus -28.2067 -20.1617 -84.7913
rradius 38.8971
rwrist 6.57891
rhand -11.4944 18.3788
rfingers 7.12502
rthumb 14.5442 -11.0914
lclavicle 7.95139e-015 2.38542e-014
lhumerus -0.749128 -5.51595 75.4751
lradius 63.7588
lwrist -7.04729
lhand -44.4079 -12.8848
lfingers 7.12502
lthumb -17.2139 16.3728
rfemur -48.162 -11.5796 11.8663
rtibia 92.3739
rfoot 5.46167 22.0812
rtoes -28.0771
lfemur -7.25398 2.79717 -13.1301
ltibia 42.2824
lfoot -19.3105 -2.52773
ltoes -10.6408
169
root -3.68253 18.6135 -2.61716 461.108 94.5423 470.428
lowerback 10.7665 0.24287 -10.4978
upperback 17.7204 2.00544 -3.1166
thorax 13.7112 0.534474 2.47808
lowerneck 8.29975 -9.47826 -1.99062
upperneck 0.687027 -12.4453 20.559
head 0.256178 -6.48844 6.7173
rclavicle 4.77083e-015 2.38542e-014
rhumerus -28.2164 -20.2225 -84.6719
rradius 38.7734
rwrist 6.50918
rhand -11.508 18.4079
rfingers 7.12502
rthumb 14.5311 -11.0632
lclavicle 4.77083e-015 2.38542e-014
lhumerus -0.49828 -5.62781 75.6273
lradius 63.8436
lwrist -7.13167
lhand -44.5181 -12.6391
lfingers 7.12502
lthumb -17.3199 16.6092
rfemur -48.4128 -11.6656 11.9905
rtibia 91.0902
rfoot 5.02142 21.9499
rtoes -28.1971
lfemur -6.81395 2.4744 -13.2855
ltibia 42.1384
lfoot -19.5551 -2.01972
ltoes -10.8408
